<svg xmlns="http://www.w3.org/2000/svg" width="2000" height="350" viewBox="0 0 2000 350">
    <g fill="none" fill-rule="evenodd">
        <path fill="#F5F5F5" d="M0 0h2000v350H0z"/>
        <path fill="#FFF" d="M1052.61 158.658l-26.035 25.37 6.133 35.843-32.164-16.92-32.162 16.92 6.14-35.842-12.845-12.527-13.17-12.844 35.97-5.225 16.067-32.592 16.102 32.592 35.964 5.225zm18.143 9.68c-1.446-14.228-7.126-27.208-15.754-37.66a71.074 71.074 0 0 0-9.565-9.565c-12.2-10.067-27.833-16.113-44.87-16.113-17.05 0-32.69 6.046-44.887 16.113a71.074 71.074 0 0 0-9.566 9.564c-2.33 2.825-4.384 5.88-6.261 9.049-5.06 8.556-8.433 18.23-9.486 28.612a71.377 71.377 0 0 0-.366 7.209 70.45 70.45 0 0 0 3.174 20.975 70.325 70.325 0 0 0 5.342 12.65c1.71 3.145 3.712 6.095 5.86 8.927 3.318 4.377 7.074 8.403 11.303 11.896a71.016 71.016 0 0 0 11.25 7.601c10.001 5.436 21.46 8.524 33.638 8.524 12.169 0 23.621-3.088 33.617-8.524a70.86 70.86 0 0 0 11.252-7.6 70.965 70.965 0 0 0 17.163-20.824c2.174-4 3.972-8.232 5.348-12.65a70.45 70.45 0 0 0 3.173-20.975c0-2.433-.123-4.839-.365-7.21z"/>
    </g>
</svg>
