<svg class="svg-i" width="26" height="25" viewBox="0 0 26 25" fill="none" xmlns="http://www.w3.org/2000/svg">
<path fill-rule="evenodd" clip-rule="evenodd" d="M20.5833 20.9652C20.5833 21.5745 20.0645 22.069 19.4226 22.069C18.7807 22.069 18.2619 21.5745 18.2619 20.9652C18.2619 17.922 15.6584 15.4462 12.4583 15.4462C9.25825 15.4462 6.65476 17.922 6.65476 20.9652C6.65476 21.5745 6.13593 22.069 5.49405 22.069C4.85218 22.069 4.33334 21.5745 4.33334 20.9652C4.33334 16.7046 7.97914 13.2386 12.4583 13.2386C16.9375 13.2386 20.5833 16.7046 20.5833 20.9652ZM12.4583 4.40828C13.7386 4.40828 14.7798 5.39838 14.7798 6.61587C14.7798 7.83336 13.7386 8.82346 12.4583 8.82346C11.1781 8.82346 10.1369 7.83336 10.1369 6.61587C10.1369 5.39838 11.1781 4.40828 12.4583 4.40828ZM12.4583 11.0311C15.0189 11.0311 17.1012 9.05084 17.1012 6.61587C17.1012 4.18089 15.0189 2.20068 12.4583 2.20068C9.8978 2.20068 7.81548 4.18089 7.81548 6.61587C7.81548 9.05084 9.8978 11.0311 12.4583 11.0311Z" fill="#A5ADBB"/>
</svg>
